<svg id="visual" viewBox="0 0 900 600" width="900" height="600" xmlns="http://www.w3.org/2000/svg" xmlns:xlink="http://www.w3.org/1999/xlink" version="1.1"><rect x="0" y="0" width="900" height="600" fill="#002233"></rect><path d="M0 442L21.5 442.2C43 442.3 86 442.7 128.8 446.5C171.7 450.3 214.3 457.7 257.2 471.2C300 484.7 343 504.3 385.8 511.2C428.7 518 471.3 512 514.2 502C557 492 600 478 642.8 477.2C685.7 476.3 728.3 488.7 771.2 496.8C814 505 857 509 878.5 511L900 513L900 601L878.5 601C857 601 814 601 771.2 601C728.3 601 685.7 601 642.8 601C600 601 557 601 514.2 601C471.3 601 428.7 601 385.8 601C343 601 300 601 257.2 601C214.3 601 171.7 601 128.8 601C86 601 43 601 21.5 601L0 601Z" fill="#0066FF" stroke-linecap="round" stroke-linejoin="miter"></path></svg>